<svg width="137" height="40" viewBox="0 0 137 40" fill="none" xmlns="http://www.w3.org/2000/svg">
<path d="M20 37.6471C29.7462 37.6471 37.6471 29.7462 37.6471 20C37.6471 10.2538 29.7462 2.35294 20 2.35294C10.2538 2.35294 2.35294 10.2538 2.35294 20C2.35294 29.7462 10.2538 37.6471 20 37.6471Z" fill="#FF3860" stroke="white" stroke-width="4"/>
<path opacity="0.765439" d="M12.8635 9.78024H17.0889V31.0891H12.8635V9.78024Z" fill="white"/>
<path opacity="0.765439" d="M22.318 9.896L27.7257 9.896L17.2552 20.8641L14.6071 18.1307L22.318 9.896Z" fill="white"/>
<path opacity="0.765439" d="M21.3346 31.1565H26.9954L14.5765 18.0736L11.9284 20.8069L21.3346 31.1565Z" fill="white"/>
<path d="M14.0011 24.3243C15.886 24.3243 17.414 22.81 17.414 20.942C17.414 19.074 15.886 17.5596 14.0011 17.5596C12.1162 17.5596 10.5882 19.074 10.5882 20.942C10.5882 22.81 12.1162 24.3243 14.0011 24.3243Z" fill="white" fill-opacity="0.286942"/>
<path d="M54.2344 32V23.9531L57.0156 20.9375L65.9688 32H68.7031L58.5156 19.4219L67.7812 9.45312H65.0781L54.3594 21.1406H54.2344V9.45312H52.1094V32H54.2344ZM72.7344 9.45312H70.6094V24.125C70.6094 28.9844 73.9062 32.3594 79.3281 32.3594C84.75 32.3594 88.0625 28.9844 88.0625 24.125V9.45312H85.9219V24C85.9219 27.7812 83.4688 30.375 79.3281 30.375C75.2031 30.375 72.7344 27.7812 72.7344 24V9.45312ZM100.75 32V22.25L108.828 9.45312H106.391L99.7188 20.1562H99.6406L92.9688 9.45312H90.5312L98.6094 22.25V32H100.75ZM109.953 32.1406C110.766 32.1406 111.406 31.5 111.406 30.6875C111.406 29.8594 110.766 29.2188 109.953 29.2188C109.141 29.2188 108.484 29.8594 108.484 30.6875C108.484 31.5 109.141 32.1406 109.953 32.1406ZM116.891 12.375C117.656 12.375 118.281 11.7656 118.281 11C118.281 10.2344 117.656 9.625 116.891 9.625C116.141 9.625 115.516 10.2344 115.516 11C115.516 11.7656 116.141 12.375 116.891 12.375ZM115.859 32H117.922V15.75H115.859V32ZM128.219 32.2656C132.641 32.2656 135.625 29.0312 135.625 23.875C135.625 18.7031 132.641 15.4844 128.219 15.4844C123.812 15.4844 120.812 18.7031 120.812 23.875C120.812 29.0312 123.797 32.2656 128.219 32.2656ZM128.219 30.4375C125.031 30.4375 122.922 28 122.922 23.875C122.922 19.75 125.031 17.3125 128.219 17.3125C131.406 17.3125 133.531 19.75 133.531 23.875C133.531 28 131.406 30.4375 128.219 30.4375Z" fill="white"/>
</svg>
